<svg width="100" height="100" viewBox="0 0 100 100" fill="none" xmlns="http://www.w3.org/2000/svg">
<rect width="100" height="100" fill="black"/>
<path d="M65.3804 57.0183V37.8513H69.1164V57.0183H65.3804Z" fill="#F7A600"/>
<path d="M21.8395 62.7128H13.8298V43.5458H21.5173C25.2532 43.5458 27.4304 45.6456 27.4304 48.9295C27.4304 51.0556 26.0327 52.4293 25.0659 52.8872C26.222 53.4258 27.7003 54.6361 27.7003 57.1938C27.7003 60.7743 25.2533 62.7128 21.8395 62.7128ZM21.2212 46.8842H17.5658V51.2997H21.2212C22.8062 51.2997 23.6944 50.4122 23.6944 49.0929C23.6944 47.7717 22.8082 46.8842 21.2212 46.8842ZM21.4629 54.6643H17.5658V59.3744H21.4629C23.1567 59.3744 23.9623 58.2972 23.9623 57.0062C23.9643 55.7132 23.1567 54.6643 21.4629 54.6643Z" fill="white"/>
<path d="M39.0955 54.8519V62.7128H35.3857V54.8519L29.6337 43.5458H33.692L37.2668 51.2715L40.7873 43.5458H44.8456L39.0955 54.8519Z" fill="white"/>
<path d="M55.4372 62.7128H47.4275V43.5458H55.115C58.851 43.5458 61.0281 45.6456 61.0281 48.9295C61.0281 51.0556 59.6304 52.4293 58.6637 52.8872C59.8197 53.4258 61.298 54.6361 61.298 57.1938C61.296 60.7743 58.8489 62.7128 55.4372 62.7128ZM54.8189 46.8842H51.1635V51.2997H54.8189C56.4039 51.2997 57.2921 50.4122 57.2921 49.0929C57.2901 47.7717 56.4039 46.8842 54.8189 46.8842ZM55.0606 54.6643H51.1635V59.3744H55.0606C56.7544 59.3744 57.56 58.2972 57.56 57.0062C57.56 55.7132 56.7524 54.6643 55.0606 54.6643Z" fill="white"/>
<path d="M81.1582 46.8842V62.7128H77.4222V46.8842H72.4234V43.5458H86.159V46.8842H81.1582Z" fill="white"/>
</svg>
