<svg width="12" height="14" fill="none" xmlns="http://www.w3.org/2000/svg"><path d="M2.592 13.496a.644.644 0 0 0 .916-.044.66.66 0 0 0-.043-.926L2.328 11.48h6.645c.784 0 1.547-.286 2.118-.81A2.759 2.759 0 0 0 12 8.638V7.546a.652.652 0 0 0-.649-.655.652.652 0 0 0-.648.655V8.64c0 .385-.166.768-.485 1.06-.32.295-.767.47-1.245.47H2.328l1.137-1.044a.66.66 0 0 0 .043-.927.644.644 0 0 0-.916-.044L.24 10.316a.657.657 0 0 0-.002 1.017l2.354 2.163ZM0 6.454c0 .362.29.655.649.655a.652.652 0 0 0 .648-.655V5.36c0-.385.166-.768.485-1.06.32-.295.767-.47 1.245-.47h6.647L8.537 4.876a.66.66 0 0 0-.044.926.644.644 0 0 0 .916.044l2.379-2.186A.652.652 0 0 0 12 3.186v-.011a.657.657 0 0 0-.22-.492L9.41.504a.644.644 0 0 0-.917.044.66.66 0 0 0 .044.926L9.673 2.52H3.027c-.784 0-1.547.286-2.118.811A2.759 2.759 0 0 0 0 5.36v1.094Z" fill="#121214"/></svg>